#N canvas 1456 562 631 788 12;
#X obj 94 249 fluid.mfcc~ 13;
#X obj 94 328 array set raw_data;
#X obj 344 300 fluid.stats 13 -history 10;
#X obj 344 324 array set smoothed_data;
#N canvas 0 22 450 278 (subpatch) 0;
#X array raw_data 13 float 2;
#X coords 0 100 13 -100 200 140 1 0 0;
#X restore 94 381 graph;
#N canvas 0 22 450 278 (subpatch) 0;
#X array smoothed_data 13 float 2;
#X coords 0 100 13 -100 200 140 1 0 0;
#X restore 346 380 graph;
#X obj 93 194 spigot;
#X obj 93 138 tgl 15 0 empty empty empty 17 7 0 10 #fcfcfc #000000
#000000 0 1;
#X obj 93 163 t b f;
#X obj 173 88 array define input;
#X obj 94 225 tabplay~ input;
#X obj 93 88 soundfiler;
#N canvas 543 61 160 300 filter_redundancy 0;
#X obj 34 37 inlet;
#X obj 35 222 outlet;
#X obj 66 96 change;
#X obj 34 61 t l f;
#X obj 35 155 spigot;
#X obj 35 179 t l b;
#X msg 100 121 0;
#X msg 66 120 1;
#X connect 0 0 3 0;
#X connect 2 0 7 0;
#X connect 3 0 4 0;
#X connect 3 1 2 0;
#X connect 4 0 5 0;
#X connect 5 0 1 0;
#X connect 5 1 6 0;
#X connect 6 0 4 1;
#X connect 7 0 4 1;
#X restore 94 273 pd filter_redundancy;
#X msg 344 268 history \$1;
#X obj 344 195 int;
#X floatatom 344 240 5 0 0 0 - - - 0;
#X obj 347 161 hsl 128 15 0 127 0 0 empty empty History -2 -8 0 10
#fcfcfc #000000 #000000 0 1;
#X msg 93 31 read -resize media/Nicol-LoopE-M.wav input, f 62;
#X text 118 135 Toggle on for playback;
#X connect 0 0 12 0;
#X connect 2 0 3 0;
#X connect 6 0 10 0;
#X connect 7 0 8 0;
#X connect 8 0 6 0;
#X connect 8 1 6 1;
#X connect 10 0 0 0;
#X connect 10 1 6 0;
#X connect 12 0 1 0;
#X connect 12 0 2 0;
#X connect 13 0 2 0;
#X connect 14 0 15 0;
#X connect 15 0 13 0;
#X connect 16 0 14 0;
#X connect 17 0 11 0;
