#N canvas 1132 428 1399 917 12;
#X obj 31 296 soundfiler;
#X obj 31 361 t b;
#X obj 778 722 output~;
#X text 440 134 Load a source sound file into the array "src" to start
processing. Replace this path with one that makes sense for your machine.
;
#X obj 513 399 array define slicepoints;
#X msg 31 150 symbol ~/FluidCorpusManipulation/media/Nicol-LoopE-M.wav
;
#X obj 31 437 array size slicepoints;
#N canvas 730 215 450 329 counter 0;
#X obj 22 26 inlet;
#X obj 76 27 inlet;
#X obj 33 295 outlet;
#X obj 22 96 f;
#X obj 64 95 + 1;
#X obj 21 129 t f f;
#X obj 148 27 inlet;
#X obj 34 249 f;
#X obj 153 225 outlet;
#X text 126 266 effectively a for loop will keep iterating till it
hits a maximum;
#X msg 76 59 0;
#X obj 130 156 <;
#X obj 130 189 sel 1 0;
#X connect 0 0 3 0;
#X connect 1 0 10 0;
#X connect 3 0 4 0;
#X connect 3 0 5 0;
#X connect 4 0 3 1;
#X connect 5 0 11 0;
#X connect 5 1 7 1;
#X connect 6 0 11 1;
#X connect 7 0 2 0;
#X connect 10 0 3 1;
#X connect 11 0 12 0;
#X connect 12 0 7 0;
#X connect 12 1 8 0;
#X restore 31 546 pd counter;
#X msg 31 258 read -resize \$1 drum;
#X text 182 257 read the sound file into the array defined as "drum"
;
#X obj 116 297 array define drum;
#X msg 31 777 setpoint \$1 slice.mean;
#X floatatom 778 633 5 0 0 0 - - - 0;
#X obj 98 362 s sr;
#X msg 98 332 \$1;
#N canvas 1 26 298 441 slice_playback 0;
#X obj 53 258 phasor~;
#X obj 14 311 *~;
#X obj 13 344 +~;
#X obj 23 158 t f l;
#X obj 54 184 expr $f2 - $f1;
#X obj 55 221 expr $f2 / $f1;
#X obj 23 134 array get slicepoints 0 2;
#X obj 13 374 tabread~ drum;
#X obj 21 64 t f b;
#X obj 210 132 v sr;
#X obj 22 16 inlet;
#X obj 13 416 outlet~;
#X connect 0 0 1 0;
#X connect 1 0 2 0;
#X connect 2 0 7 0;
#X connect 3 0 2 1;
#X connect 3 1 4 0;
#X connect 4 0 1 1;
#X connect 4 0 5 0;
#X connect 5 0 0 0;
#X connect 6 0 3 0;
#X connect 7 0 11 0;
#X connect 8 0 6 0;
#X connect 8 1 9 0;
#X connect 9 0 5 1;
#X connect 10 0 8 0;
#X restore 778 680 pd slice_playback;
#X obj 913 714 fluid.dataset data;
#X obj 1035 752 route getpoint;
#X msg 913 680 getpoint \$1 query;
#X obj 1050 679 array define query;
#X obj 1035 787 array get query;
#X msg 1035 858 8046.24;
#X msg 1035 822 set \$1;
#X text 1097 857 mean centroid of slice currently playing;
#X text 137 360 store the samplerate for playing slices later;
#X text 196 437 get slice indices as a list;
#X text 197 764 every analysis iteration store the data in a fluid.dataset
;
#X text 821 633 select a slice to playback and see the average centroid
;
#X text 120 704 look in here for how the analysis is performed;
#X obj 31 399 fluid.bufnoveltyslice -source drum -indices slicepoints
-blocking 0, f 67;
#N canvas 0 25 1142 424 analysis 0;
#X obj 16 75 array get slicepoints 0 2;
#X obj 732 299 array define slice.stats;
#X obj 839 340 array define slice.mean;
#X obj 168 166 expr $f2 - $f1;
#X msg 168 198 numframes \$1;
#X msg 39 192 startframe \$1;
#X obj 16 128 t b l l;
#X obj 757 246 clone fluid.multiarray 7 slice.analysis;
#X text 280 176 analyse only the slice by setting the start frame and
the number of frames to analyse;
#X text 450 245 analyse all spectral moments and store -->;
#X text 432 299 only calculate stats of spectral centroid;
#X text 520 342 select the first value from the stats (mean);
#X obj 16 24 inlet;
#X text 212 19 iterate over pairs of slice points for example: 0 \,
1024 \, 2048 \, 5000 \, 10000 becomes: 0 1024 1024 2048 2048 5000 5000
10000;
#X obj 15 388 outlet;
#X obj 15 246 fluid.bufspectralshape -source drum -features slice.analysis
-blocking 0;
#X obj 15 300 fluid.bufstats -source slice.analysis-0 -stats slice.stats
-blocking 0;
#X obj 15 342 fluid.bufselect -source slice.stats -destination slice.mean
-indices 0 -blocking 0, f 71;
#X connect 0 0 6 0;
#X connect 3 0 4 0;
#X connect 4 0 15 0;
#X connect 5 0 15 0;
#X connect 6 0 15 0;
#X connect 6 1 5 0;
#X connect 6 2 3 0;
#X connect 12 0 0 0;
#X connect 15 0 16 0;
#X connect 16 0 17 0;
#X connect 17 0 14 0;
#X restore 31 702 pd analysis;
#X obj 31 578 t f f;
#X obj 175 843 route setpoint;
#X obj 511 504 print;
#X msg 511 475 Processing slice number \$1;
#X obj 31 488 t b b f, f 10;
#X obj 31 182 t l b, f 9;
#X msg 92 206 clear;
#X obj 98 517 - 1;
#X msg 98 578 print;
#X obj 98 639 print;
#X obj 511 447 r \$0-idx;
#X obj 112 488 r \$0-iterate;
#X obj 175 874 s \$0-iterate;
#X obj 63 669 s \$0-idx;
#X obj 92 232 fluid.dataset \$0-data;
#X obj 31 812 fluid.dataset \$0-data;
#X obj 31 734 v \$0-idx;
#X obj 98 608 fluid.dataset \$0-data;
#X obj 31 88 pdcontrol;
#X msg 31 55 browse https://learn.flucoma.org/overviews/batch-processing
;
#X obj 9 16 cnv 15 100 10 empty empty Batch\\\ Processing 20 12 0 36
#fcfcfc #404040 0;
#X connect 0 0 1 0;
#X connect 0 1 14 0;
#X connect 1 0 29 0;
#X connect 5 0 36 0;
#X connect 6 0 35 0;
#X connect 7 0 31 0;
#X connect 7 1 39 0;
#X connect 8 0 0 0;
#X connect 11 0 46 0;
#X connect 12 0 15 0;
#X connect 12 0 18 0;
#X connect 14 0 13 0;
#X connect 15 0 2 0;
#X connect 15 0 2 1;
#X connect 16 2 17 0;
#X connect 17 0 20 0;
#X connect 18 0 16 0;
#X connect 20 0 22 0;
#X connect 22 0 21 0;
#X connect 29 0 6 0;
#X connect 30 0 47 0;
#X connect 31 0 30 0;
#X connect 31 1 44 0;
#X connect 32 0 43 0;
#X connect 34 0 33 0;
#X connect 35 0 7 0;
#X connect 35 1 7 1;
#X connect 35 2 38 0;
#X connect 36 0 8 0;
#X connect 36 1 37 0;
#X connect 37 0 45 0;
#X connect 38 0 7 2;
#X connect 39 0 48 0;
#X connect 41 0 34 0;
#X connect 42 0 7 0;
#X connect 46 2 32 0;
#X connect 47 0 11 0;
#X connect 48 0 40 0;
#X connect 50 0 49 0;
