#N canvas 1 26 1394 906 12;
#X obj 167 257 file glob;
#X msg 32 144 symbol ~/FluidCorpusManipulation/media/*.wav;
#X obj 164 407 soundfiler;
#X msg 164 371 read -resize \$1 src;
#X obj 164 451 t b;
#X obj 166 317 t l l b, f 31;
#X obj 161 639 fluid.bufhpss -source src;
#X obj 41 371 array define src;
#X obj 226 290 print FILE_ERROR;
#X msg 161 595 harmonic h_\$1 \, percussive p_\$1 \, bang;
#X obj 34 189 t b l b, f 39;
#X obj 34 258 print complete!;
#X obj 162 556 t f f;
#X obj 161 724 text set outputs;
#N canvas 1 26 839 539 dynamic_array_management 0;
#X obj 100 506 s pd-outputs;
#X obj 100 318 + 10;
#X obj 101 276 * 25;
#N canvas 1 26 268 243 counter 0;
#X obj 43 95 f 0;
#X obj 96 109 + 1;
#X obj 40 31 inlet;
#X obj 117 59 inlet;
#X obj 35 199 outlet;
#X text 166 58 reset;
#X text 84 31 increment;
#X obj 42 135 t f f;
#X connect 0 0 7 0;
#X connect 1 0 0 1;
#X connect 2 0 0 0;
#X connect 3 0 0 1;
#X connect 7 0 4 0;
#X connect 7 1 1 0;
#X restore 20 185 pd counter;
#X obj 99 369 list append, f 13;
#X msg 100 451 obj 20 \$1 array define h_\$2;
#X obj 99 408 t l l;
#X msg 307 452 obj 160 \$1 array define p_\$2;
#X msg 119 173 \; pd-outputs clear;
#X obj 87 144 t 0 b;
#X obj 20 219 t f f f, f 24;
#X obj 22 62 inlet;
#X obj 86 102 inlet;
#X obj 20 277 outlet;
#X text 64 61 increment and create arrays;
#X text 132 103 clear all arrays and reset counter to 0;
#X text 519 444 define two arrays in the outputs subpatch one for harmonic
and one for percussive;
#X text 202 289 figure out the positioning of the arrays in the subpatch
;
#X text 18 13 This sub patcher dynamically creates the destination/output
arrays for the fluid.bufhpss object.;
#X connect 1 0 4 0;
#X connect 2 0 1 0;
#X connect 3 0 10 0;
#X connect 4 0 6 0;
#X connect 5 0 0 0;
#X connect 6 0 5 0;
#X connect 6 1 7 0;
#X connect 7 0 0 0;
#X connect 9 0 3 1;
#X connect 9 1 8 0;
#X connect 10 0 13 0;
#X connect 10 1 2 0;
#X connect 10 2 4 1;
#X connect 11 0 3 0;
#X connect 12 0 9 0;
#X restore 162 501 pd dynamic_array_management;
#X obj 387 500 text delete outputs;
#X obj 348 460 t b -1;
#X obj 161 681 list store;
#X msg 923 218 stop;
#X floatatom 979 217 5 0 0 0 - - - 0;
#X msg 979 284 set p_\$1 \, bang;
#X obj 923 373 output~;
#X obj 923 328 tabplay~;
#X msg 1099 284 set h_\$1 \, bang;
#X floatatom 1099 215 5 0 0 0 - - - 0;
#X obj 1008 376 text get outputs;
#X symbolatom 1007 471 53 0 0 0 - - - 0;
#X msg 1007 424 set \$1;
#X text 428 595 set the harmonic and percussive outputs to the new
array;
#X text 242 681 retrieve the file name for the soundfile that was just
processed, f 66;
#X text 283 722 store the file name that was processed using the index
as its position in the text;
#X text 315 372 read the sound file into the array defined as src;
#X text 535 499 clear the text containing the outputs names;
#X obj 54 800 cnv 15 600 80 empty cnv empty 20 12 0 14 #e7af9c #404040
0;
#N canvas 697 935 450 300 outputs 0;
#X obj 160 10 array define p_0;
#X obj 20 10 array define h_0;
#X obj 160 35 array define p_1;
#X obj 20 35 array define h_1;
#X obj 160 60 array define p_2;
#X obj 20 60 array define h_2;
#X obj 160 85 array define p_3;
#X obj 20 85 array define h_3;
#X obj 160 110 array define p_4;
#X obj 20 110 array define h_4;
#X obj 160 135 array define p_5;
#X obj 20 135 array define h_5;
#X obj 160 160 array define p_6;
#X obj 20 160 array define h_6;
#X obj 160 185 array define p_7;
#X obj 20 185 array define h_7;
#X obj 160 210 array define p_8;
#X obj 20 210 array define h_8;
#X obj 160 235 array define p_9;
#X obj 20 235 array define h_9;
#X obj 160 260 array define p_10;
#X obj 20 260 array define h_10;
#X obj 160 285 array define p_11;
#X obj 20 285 array define h_11;
#X obj 160 310 array define p_12;
#X obj 20 310 array define h_12;
#X obj 160 335 array define p_13;
#X obj 20 335 array define h_13;
#X obj 160 360 array define p_14;
#X obj 20 360 array define h_14;
#X obj 160 385 array define p_15;
#X obj 20 385 array define h_15;
#X obj 160 410 array define p_16;
#X obj 20 410 array define h_16;
#X obj 160 435 array define p_17;
#X obj 20 435 array define h_17;
#X obj 160 460 array define p_18;
#X obj 20 460 array define h_18;
#X obj 160 485 array define p_19;
#X obj 20 485 array define h_19;
#X obj 160 510 array define p_20;
#X obj 20 510 array define h_20;
#X obj 160 535 array define p_21;
#X obj 20 535 array define h_21;
#X restore 61 852 pd outputs;
#X obj 59 809 text define outputs;
#X text 200 803 each file that was processed is stored here the index
of each file name maps against the array in "outputs", f 64;
#X text 140 847 <-- the audio outputs of the batch decomposition are
stored in arrays in this subpatcher;
#X text 361 140 set the path here to a folder of audio files this shows
an example pointing toward the FluCoMa media exaxmples send the message
to start batch processing!;
#X obj 31 88 pdcontrol;
#X msg 31 55 browse https://learn.flucoma.org/learn/batch-processing
;
#X obj 9 16 cnv 15 100 10 empty empty Batch\\\ Processing 20 12 0 36
#fcfcfc #404040 0;
#X connect 0 0 5 0;
#X connect 0 1 8 0;
#X connect 1 0 10 0;
#X connect 2 0 4 0;
#X connect 3 0 2 0;
#X connect 4 0 14 0;
#X connect 5 0 3 0;
#X connect 5 1 17 1;
#X connect 6 0 17 0;
#X connect 9 0 6 0;
#X connect 10 0 11 0;
#X connect 10 1 0 0;
#X connect 10 2 16 0;
#X connect 12 0 9 0;
#X connect 12 1 13 1;
#X connect 14 0 12 0;
#X connect 16 0 14 1;
#X connect 16 1 15 0;
#X connect 17 0 13 0;
#X connect 18 0 22 0;
#X connect 19 0 20 0;
#X connect 19 0 25 0;
#X connect 20 0 22 0;
#X connect 22 0 21 0;
#X connect 22 0 21 1;
#X connect 23 0 22 0;
#X connect 24 0 23 0;
#X connect 24 0 25 0;
#X connect 25 0 27 0;
#X connect 27 0 26 0;
#X connect 40 0 39 0;
