{
	"patcher" : 	{
		"fileversion" : 1,
		"appversion" : 		{
			"major" : 8,
			"minor" : 2,
			"revision" : 1,
			"architecture" : "x64",
			"modernui" : 1
		}
,
		"classnamespace" : "box",
		"rect" : [ 34.0, 87.0, 1612.0, 929.0 ],
		"bglocked" : 0,
		"openinpresentation" : 0,
		"default_fontsize" : 12.0,
		"default_fontface" : 0,
		"default_fontname" : "Arial",
		"gridonopen" : 1,
		"gridsize" : [ 15.0, 15.0 ],
		"gridsnaponopen" : 1,
		"objectsnaponopen" : 1,
		"statusbarvisible" : 2,
		"toolbarvisible" : 1,
		"lefttoolbarpinned" : 0,
		"toptoolbarpinned" : 0,
		"righttoolbarpinned" : 0,
		"bottomtoolbarpinned" : 0,
		"toolbars_unpinned_last_save" : 0,
		"tallnewobj" : 0,
		"boxanimatetime" : 200,
		"enablehscroll" : 1,
		"enablevscroll" : 1,
		"devicewidth" : 0.0,
		"description" : "",
		"digest" : "",
		"tags" : "",
		"style" : "",
		"subpatcher_template" : "",
		"assistshowspatchername" : 0,
		"boxes" : [ 			{
				"box" : 				{
					"id" : "obj-4",
					"linecount" : 3,
					"maxclass" : "comment",
					"numinlets" : 1,
					"numoutlets" : 0,
					"patching_rect" : [ 606.0, 164.0, 91.0, 47.0 ],
					"text" : "select which output you wish to hear"
				}

			}
, 			{
				"box" : 				{
					"id" : "obj-20",
					"linecount" : 2,
					"maxclass" : "comment",
					"numinlets" : 1,
					"numoutlets" : 0,
					"patching_rect" : [ 335.5, 526.399998664855957, 244.0, 33.0 ],
					"presentation_linecount" : 3,
					"text" : "playing the \"song\" through fluid.nmfmatch~ roughly finds the drum instruments"
				}

			}
, 			{
				"box" : 				{
					"id" : "obj-51",
					"maxclass" : "comment",
					"numinlets" : 1,
					"numoutlets" : 0,
					"patching_rect" : [ 816.0, 268.0, 150.0, 20.0 ],
					"text" : "hear original song"
				}

			}
, 			{
				"box" : 				{
					"id" : "obj-49",
					"maxclass" : "toggle",
					"numinlets" : 1,
					"numoutlets" : 1,
					"outlettype" : [ "int" ],
					"parameter_enable" : 0,
					"patching_rect" : [ 783.0, 264.0, 24.0, 24.0 ]
				}

			}
, 			{
				"box" : 				{
					"id" : "obj-45",
					"maxclass" : "newobj",
					"numinlets" : 2,
					"numoutlets" : 1,
					"outlettype" : [ "signal" ],
					"patching_rect" : [ 736.0, 300.0, 39.0, 22.0 ],
					"text" : "gate~"
				}

			}
, 			{
				"box" : 				{
					"id" : "obj-35",
					"maxclass" : "number",
					"numinlets" : 1,
					"numoutlets" : 2,
					"outlettype" : [ "", "bang" ],
					"parameter_enable" : 0,
					"patching_rect" : [ 542.0, 164.0, 50.0, 22.0 ]
				}

			}
, 			{
				"box" : 				{
					"id" : "obj-36",
					"maxclass" : "newobj",
					"numinlets" : 4,
					"numoutlets" : 1,
					"outlettype" : [ "signal" ],
					"patching_rect" : [ 518.5, 307.599995255470276, 157.0, 22.0 ],
					"text" : "selector~ 3"
				}

			}
, 			{
				"box" : 				{
					"id" : "obj-38",
					"maxclass" : "ezdac~",
					"numinlets" : 2,
					"numoutlets" : 0,
					"patching_rect" : [ 524.5, 355.0, 45.0, 45.0 ]
				}

			}
, 			{
				"box" : 				{
					"id" : "obj-139",
					"maxclass" : "comment",
					"numinlets" : 1,
					"numoutlets" : 0,
					"patching_rect" : [ 1037.0, 442.899998664855957, 371.0, 20.0 ],
					"text" : "Decompose the 3 second sound file to get the base of the dog bark"
				}

			}
, 			{
				"box" : 				{
					"id" : "obj-138",
					"maxclass" : "newobj",
					"numinlets" : 1,
					"numoutlets" : 2,
					"outlettype" : [ "float", "bang" ],
					"patching_rect" : [ 1287.0, 473.199982047080994, 121.0, 22.0 ],
					"text" : "buffer~ golcar_bases"
				}

			}
, 			{
				"box" : 				{
					"id" : "obj-137",
					"maxclass" : "button",
					"numinlets" : 1,
					"numoutlets" : 1,
					"outlettype" : [ "bang" ],
					"parameter_enable" : 0,
					"patching_rect" : [ 1042.0, 546.599976062774658, 24.0, 24.0 ]
				}

			}
, 			{
				"box" : 				{
					"id" : "obj-135",
					"maxclass" : "button",
					"numinlets" : 1,
					"numoutlets" : 1,
					"outlettype" : [ "bang" ],
					"parameter_enable" : 0,
					"patching_rect" : [ 1042.0, 471.199982047080994, 24.0, 24.0 ]
				}

			}
, 			{
				"box" : 				{
					"id" : "obj-133",
					"linecount" : 2,
					"maxclass" : "newobj",
					"numinlets" : 1,
					"numoutlets" : 3,
					"outlettype" : [ "bang", "float", "" ],
					"patching_rect" : [ 1042.0, 503.799988031387329, 372.0, 35.0 ],
					"text" : "fluid.bufnmf~ @source golcar_first_3_sec @components 2 @bases golcar_bases"
				}

			}
, 			{
				"box" : 				{
					"id" : "obj-132",
					"maxclass" : "comment",
					"numinlets" : 1,
					"numoutlets" : 0,
					"patching_rect" : [ 1042.0, 271.899998664855957, 150.0, 20.0 ],
					"text" : "Hear them:"
				}

			}
, 			{
				"box" : 				{
					"id" : "obj-130",
					"maxclass" : "toggle",
					"numinlets" : 1,
					"numoutlets" : 1,
					"outlettype" : [ "int" ],
					"parameter_enable" : 0,
					"patching_rect" : [ 1182.0, 293.899998664855957, 24.0, 24.0 ]
				}

			}
, 			{
				"box" : 				{
					"id" : "obj-131",
					"maxclass" : "newobj",
					"numinlets" : 1,
					"numoutlets" : 2,
					"outlettype" : [ "signal", "bang" ],
					"patching_rect" : [ 1182.0, 327.899994015693665, 138.0, 22.0 ],
					"text" : "play~ golcar_first_3_sec"
				}

			}
, 			{
				"box" : 				{
					"id" : "obj-129",
					"maxclass" : "newobj",
					"numinlets" : 1,
					"numoutlets" : 2,
					"outlettype" : [ "float", "bang" ],
					"patching_rect" : [ 1115.0, 184.0, 147.0, 22.0 ],
					"text" : "buffer~ golcar_first_3_sec"
				}

			}
, 			{
				"box" : 				{
					"id" : "obj-128",
					"maxclass" : "comment",
					"numinlets" : 1,
					"numoutlets" : 0,
					"patching_rect" : [ 1042.0, 158.899994015693665, 150.0, 20.0 ],
					"text" : "just the first 3 seconds"
				}

			}
, 			{
				"box" : 				{
					"id" : "obj-127",
					"linecount" : 2,
					"maxclass" : "newobj",
					"numinlets" : 1,
					"numoutlets" : 3,
					"outlettype" : [ "bang", "float", "" ],
					"patching_rect" : [ 1042.0, 215.399994015693665, 313.0, 35.0 ],
					"text" : "fluid.bufcompose~ @source golcar @numchans 1 @numframes 132300 @destination golcar_first_3_sec"
				}

			}
, 			{
				"box" : 				{
					"id" : "obj-126",
					"maxclass" : "newobj",
					"numinlets" : 1,
					"numoutlets" : 1,
					"outlettype" : [ "bang" ],
					"patching_rect" : [ 1042.0, 180.899994015693665, 58.0, 22.0 ],
					"text" : "loadbang"
				}

			}
, 			{
				"box" : 				{
					"id" : "obj-125",
					"maxclass" : "ezdac~",
					"numinlets" : 2,
					"numoutlets" : 0,
					"patching_rect" : [ 1042.0, 370.5, 45.0, 45.0 ]
				}

			}
, 			{
				"box" : 				{
					"id" : "obj-123",
					"maxclass" : "toggle",
					"numinlets" : 1,
					"numoutlets" : 1,
					"outlettype" : [ "int" ],
					"parameter_enable" : 0,
					"patching_rect" : [ 1042.0, 293.899998664855957, 24.0, 24.0 ]
				}

			}
, 			{
				"box" : 				{
					"id" : "obj-124",
					"maxclass" : "newobj",
					"numinlets" : 1,
					"numoutlets" : 3,
					"outlettype" : [ "signal", "signal", "bang" ],
					"patching_rect" : [ 1042.0, 327.899994015693665, 84.0, 22.0 ],
					"text" : "play~ golcar 2"
				}

			}
, 			{
				"box" : 				{
					"id" : "obj-122",
					"maxclass" : "comment",
					"numinlets" : 1,
					"numoutlets" : 0,
					"patching_rect" : [ 1042.0, 97.899998664855957, 150.0, 20.0 ],
					"text" : "22 second sound file:"
				}

			}
, 			{
				"box" : 				{
					"id" : "obj-119",
					"maxclass" : "newobj",
					"numinlets" : 1,
					"numoutlets" : 2,
					"outlettype" : [ "float", "bang" ],
					"patching_rect" : [ 1042.0, 121.899998664855957, 313.0, 22.0 ],
					"text" : "buffer~ golcar Tremblay-BaB-SoundscapeGolcarWithDog"
				}

			}
, 			{
				"box" : 				{
					"id" : "obj-108",
					"maxclass" : "message",
					"numinlets" : 2,
					"numoutlets" : 1,
					"outlettype" : [ "" ],
					"patching_rect" : [ 1362.0, 737.899994015693665, 101.0, 22.0 ],
					"text" : "0. 0."
				}

			}
, 			{
				"box" : 				{
					"id" : "obj-109",
					"maxclass" : "ezdac~",
					"numinlets" : 2,
					"numoutlets" : 0,
					"patching_rect" : [ 1045.0, 701.699982047080994, 45.0, 45.0 ]
				}

			}
, 			{
				"box" : 				{
					"id" : "obj-110",
					"linecount" : 2,
					"maxclass" : "comment",
					"numinlets" : 1,
					"numoutlets" : 0,
					"patching_rect" : [ 1077.0, 603.099989831447601, 325.0, 33.0 ],
					"text" : "Playback the whole file, matching against the base of the dog bark and see where the dog bark is in the whole file"
				}

			}
, 			{
				"box" : 				{
					"id" : "obj-114",
					"maxclass" : "toggle",
					"numinlets" : 1,
					"numoutlets" : 1,
					"outlettype" : [ "int" ],
					"parameter_enable" : 0,
					"patching_rect" : [ 1045.0, 611.799992680549622, 24.0, 24.0 ]
				}

			}
, 			{
				"box" : 				{
					"id" : "obj-115",
					"maxclass" : "newobj",
					"numinlets" : 1,
					"numoutlets" : 3,
					"outlettype" : [ "signal", "signal", "bang" ],
					"patching_rect" : [ 1045.0, 645.799988031387329, 132.0, 22.0 ],
					"text" : "play~ golcar 2 @loop 1"
				}

			}
, 			{
				"box" : 				{
					"fontsize" : 18.0,
					"id" : "obj-116",
					"maxclass" : "comment",
					"numinlets" : 1,
					"numoutlets" : 0,
					"patching_rect" : [ 1042.0, 29.399994015693665, 399.0, 27.0 ],
					"text" : "Training on a Subset of Audio"
				}

			}
, 			{
				"box" : 				{
					"id" : "obj-117",
					"maxclass" : "multislider",
					"numinlets" : 1,
					"numoutlets" : 2,
					"outlettype" : [ "", "" ],
					"parameter_enable" : 0,
					"patching_rect" : [ 1103.0, 731.299988031387329, 250.0, 75.0 ],
					"setminmax" : [ 0.0, 30.0 ],
					"setstyle" : 1,
					"size" : 2
				}

			}
, 			{
				"box" : 				{
					"id" : "obj-118",
					"maxclass" : "newobj",
					"numinlets" : 1,
					"numoutlets" : 2,
					"outlettype" : [ "list", "" ],
					"patching_rect" : [ 1103.0, 686.699982047080994, 226.0, 22.0 ],
					"text" : "fluid.nmfmatch~ 2 @bases golcar_bases"
				}

			}
, 			{
				"box" : 				{
					"id" : "obj-91",
					"maxclass" : "button",
					"numinlets" : 1,
					"numoutlets" : 1,
					"outlettype" : [ "bang" ],
					"parameter_enable" : 0,
					"patching_rect" : [ 35.5, 385.599992215633392, 24.0, 24.0 ]
				}

			}
, 			{
				"box" : 				{
					"id" : "obj-92",
					"maxclass" : "button",
					"numinlets" : 1,
					"numoutlets" : 1,
					"outlettype" : [ "bang" ],
					"parameter_enable" : 0,
					"patching_rect" : [ 35.5, 296.599992215633392, 24.0, 24.0 ]
				}

			}
, 			{
				"box" : 				{
					"id" : "obj-93",
					"maxclass" : "newobj",
					"numinlets" : 1,
					"numoutlets" : 2,
					"outlettype" : [ "float", "bang" ],
					"patching_rect" : [ 289.5, 296.599992215633392, 89.0, 22.0 ],
					"text" : "buffer~ resynth"
				}

			}
, 			{
				"box" : 				{
					"id" : "obj-94",
					"maxclass" : "newobj",
					"numinlets" : 1,
					"numoutlets" : 2,
					"outlettype" : [ "float", "bang" ],
					"patching_rect" : [ 192.5, 296.599992215633392, 81.0, 22.0 ],
					"text" : "buffer~ bases"
				}

			}
, 			{
				"box" : 				{
					"id" : "obj-95",
					"maxclass" : "newobj",
					"numinlets" : 1,
					"numoutlets" : 2,
					"outlettype" : [ "float", "bang" ],
					"patching_rect" : [ 71.5, 296.599992215633392, 106.0, 22.0 ],
					"text" : "buffer~ activations"
				}

			}
, 			{
				"box" : 				{
					"id" : "obj-96",
					"linecount" : 2,
					"maxclass" : "newobj",
					"numinlets" : 1,
					"numoutlets" : 3,
					"outlettype" : [ "bang", "float", "" ],
					"patching_rect" : [ 35.5, 331.599992215633392, 334.0, 35.0 ],
					"text" : "fluid.bufnmf~ @source drums @components 3 @activations activations @bases bases @resynth resynth"
				}

			}
, 			{
				"box" : 				{
					"id" : "obj-90",
					"maxclass" : "message",
					"numinlets" : 2,
					"numoutlets" : 1,
					"outlettype" : [ "" ],
					"patching_rect" : [ 345.5, 683.0, 101.0, 22.0 ],
					"text" : "0. 0. 0."
				}

			}
, 			{
				"box" : 				{
					"id" : "obj-88",
					"maxclass" : "ezdac~",
					"numinlets" : 2,
					"numoutlets" : 0,
					"patching_rect" : [ 33.5, 631.799988031387329, 45.0, 45.0 ]
				}

			}
, 			{
				"box" : 				{
					"id" : "obj-82",
					"linecount" : 2,
					"maxclass" : "comment",
					"numinlets" : 1,
					"numoutlets" : 0,
					"patching_rect" : [ 65.5, 523.199995815753937, 150.0, 33.0 ],
					"text" : "original drums gives back the same result..."
				}

			}
, 			{
				"box" : 				{
					"id" : "obj-83",
					"maxclass" : "toggle",
					"numinlets" : 1,
					"numoutlets" : 1,
					"outlettype" : [ "int" ],
					"parameter_enable" : 0,
					"patching_rect" : [ 259.5, 531.899998664855957, 24.0, 24.0 ]
				}

			}
, 			{
				"box" : 				{
					"id" : "obj-84",
					"maxclass" : "message",
					"numinlets" : 2,
					"numoutlets" : 1,
					"outlettype" : [ "" ],
					"patching_rect" : [ 291.5, 531.899998664855957, 35.0, 22.0 ],
					"text" : "open"
				}

			}
, 			{
				"box" : 				{
					"id" : "obj-85",
					"linecount" : 3,
					"maxclass" : "newobj",
					"numinlets" : 2,
					"numoutlets" : 2,
					"outlettype" : [ "signal", "bang" ],
					"patching_rect" : [ 258.0, 565.899994015693665, 124.0, 49.0 ],
					"text" : "sfplay~ @audiofile Tremblay-beatRemember @loop 1"
				}

			}
, 			{
				"box" : 				{
					"id" : "obj-86",
					"maxclass" : "toggle",
					"numinlets" : 1,
					"numoutlets" : 1,
					"outlettype" : [ "int" ],
					"parameter_enable" : 0,
					"patching_rect" : [ 33.5, 531.899998664855957, 24.0, 24.0 ]
				}

			}
, 			{
				"box" : 				{
					"id" : "obj-87",
					"maxclass" : "newobj",
					"numinlets" : 1,
					"numoutlets" : 2,
					"outlettype" : [ "signal", "bang" ],
					"patching_rect" : [ 33.5, 565.899994015693665, 122.0, 22.0 ],
					"text" : "play~ drums @loop 1"
				}

			}
, 			{
				"box" : 				{
					"fontsize" : 18.0,
					"id" : "obj-81",
					"linecount" : 2,
					"maxclass" : "comment",
					"numinlets" : 1,
					"numoutlets" : 0,
					"patching_rect" : [ 33.5, 471.0, 427.0, 47.0 ],
					"presentation_linecount" : 2,
					"text" : "fluid.nmfmatch~ provides a real-time \"activation\" for each base"
				}

			}
, 			{
				"box" : 				{
					"id" : "obj-80",
					"linecount" : 2,
					"maxclass" : "comment",
					"numinlets" : 1,
					"numoutlets" : 0,
					"patching_rect" : [ 800.0, 87.199995815753937, 150.0, 33.0 ],
					"text" : "a different sound can similarly sort drum sounds"
				}

			}
, 			{
				"box" : 				{
					"id" : "obj-79",
					"maxclass" : "comment",
					"numinlets" : 1,
					"numoutlets" : 0,
					"patching_rect" : [ 553.0, 95.899998664855957, 150.0, 20.0 ],
					"text" : "original drums"
				}

			}
, 			{
				"box" : 				{
					"id" : "obj-10",
					"maxclass" : "multislider",
					"numinlets" : 1,
					"numoutlets" : 2,
					"outlettype" : [ "", "" ],
					"parameter_enable" : 0,
					"patching_rect" : [ 86.5, 676.399994015693665, 250.0, 75.0 ],
					"setminmax" : [ 0.0, 100.0 ],
					"size" : 3
				}

			}
, 			{
				"box" : 				{
					"id" : "obj-6",
					"maxclass" : "newobj",
					"numinlets" : 1,
					"numoutlets" : 2,
					"outlettype" : [ "list", "" ],
					"patching_rect" : [ 86.5, 631.799988031387329, 186.0, 22.0 ],
					"text" : "fluid.nmfmatch~ 3 @bases bases"
				}

			}
, 			{
				"box" : 				{
					"fontsize" : 18.0,
					"id" : "obj-77",
					"linecount" : 2,
					"maxclass" : "comment",
					"numinlets" : 1,
					"numoutlets" : 0,
					"patching_rect" : [ 521.0, 29.399994015693665, 427.0, 47.0 ],
					"presentation_linecount" : 2,
					"text" : "fluid.nmffilter~ gives us a sense of what the fluid.nmfmatch~ outputs correspond to"
				}

			}
, 			{
				"box" : 				{
					"fontsize" : 18.0,
					"id" : "obj-42",
					"maxclass" : "comment",
					"numinlets" : 1,
					"numoutlets" : 0,
					"patching_rect" : [ 35.5, 254.799988031387329, 266.0, 27.0 ],
					"text" : "fluid.bufnmf~ analysis"
				}

			}
, 			{
				"box" : 				{
					"fontsize" : 18.0,
					"id" : "obj-14",
					"maxclass" : "comment",
					"numinlets" : 1,
					"numoutlets" : 0,
					"patching_rect" : [ 28.0, 22.0, 220.0, 27.0 ],
					"text" : "The mono drum loop:"
				}

			}
, 			{
				"box" : 				{
					"id" : "obj-43",
					"maxclass" : "toggle",
					"numinlets" : 1,
					"numoutlets" : 1,
					"outlettype" : [ "int" ],
					"parameter_enable" : 0,
					"patching_rect" : [ 726.0, 95.899998664855957, 24.0, 24.0 ]
				}

			}
, 			{
				"box" : 				{
					"id" : "obj-2",
					"maxclass" : "message",
					"numinlets" : 2,
					"numoutlets" : 1,
					"outlettype" : [ "" ],
					"patching_rect" : [ 758.0, 95.899998664855957, 35.0, 22.0 ],
					"text" : "open"
				}

			}
, 			{
				"box" : 				{
					"id" : "obj-3",
					"linecount" : 3,
					"maxclass" : "newobj",
					"numinlets" : 2,
					"numoutlets" : 2,
					"outlettype" : [ "signal", "bang" ],
					"patching_rect" : [ 724.5, 129.899994015693665, 124.0, 49.0 ],
					"text" : "sfplay~ @audiofile Tremblay-beatRemember @loop 1"
				}

			}
, 			{
				"box" : 				{
					"id" : "obj-30",
					"maxclass" : "toggle",
					"numinlets" : 1,
					"numoutlets" : 1,
					"outlettype" : [ "int" ],
					"parameter_enable" : 0,
					"patching_rect" : [ 521.0, 95.899998664855957, 24.0, 24.0 ]
				}

			}
, 			{
				"box" : 				{
					"id" : "obj-46",
					"maxclass" : "newobj",
					"numinlets" : 1,
					"numoutlets" : 2,
					"outlettype" : [ "signal", "bang" ],
					"patching_rect" : [ 521.0, 129.899994015693665, 122.0, 22.0 ],
					"text" : "play~ drums @loop 1"
				}

			}
, 			{
				"box" : 				{
					"id" : "obj-26",
					"maxclass" : "newobj",
					"numinlets" : 1,
					"numoutlets" : 4,
					"outlettype" : [ "signal", "signal", "signal", "" ],
					"patching_rect" : [ 521.0, 272.899994015693665, 176.0, 22.0 ],
					"text" : "fluid.nmffilter~ 3 @bases bases"
				}

			}
, 			{
				"box" : 				{
					"id" : "obj-21",
					"maxclass" : "toggle",
					"numinlets" : 1,
					"numoutlets" : 1,
					"outlettype" : [ "int" ],
					"parameter_enable" : 0,
					"patching_rect" : [ 34.5, 55.0, 24.0, 24.0 ]
				}

			}
, 			{
				"box" : 				{
					"id" : "obj-19",
					"maxclass" : "newobj",
					"numinlets" : 1,
					"numoutlets" : 1,
					"outlettype" : [ "signal" ],
					"patching_rect" : [ 34.5, 93.0, 31.0, 22.0 ],
					"text" : "sig~"
				}

			}
, 			{
				"box" : 				{
					"id" : "obj-16",
					"maxclass" : "ezdac~",
					"numinlets" : 2,
					"numoutlets" : 0,
					"patching_rect" : [ 34.5, 171.0, 45.0, 45.0 ]
				}

			}
, 			{
				"box" : 				{
					"id" : "obj-15",
					"maxclass" : "newobj",
					"numinlets" : 3,
					"numoutlets" : 2,
					"outlettype" : [ "signal", "signal" ],
					"patching_rect" : [ 34.5, 130.0, 137.0, 22.0 ],
					"text" : "groove~ drums @loop 1"
				}

			}
, 			{
				"box" : 				{
					"id" : "obj-13",
					"maxclass" : "newobj",
					"numinlets" : 1,
					"numoutlets" : 2,
					"outlettype" : [ "float", "bang" ],
					"patching_rect" : [ 76.5, 55.0, 190.0, 22.0 ],
					"text" : "buffer~ drums Nicol-LoopE-M.wav"
				}

			}
 ],
		"lines" : [ 			{
				"patchline" : 				{
					"destination" : [ "obj-115", 0 ],
					"source" : [ "obj-114", 0 ]
				}

			}
, 			{
				"patchline" : 				{
					"destination" : [ "obj-109", 1 ],
					"order" : 1,
					"source" : [ "obj-115", 1 ]
				}

			}
, 			{
				"patchline" : 				{
					"destination" : [ "obj-109", 0 ],
					"order" : 1,
					"source" : [ "obj-115", 0 ]
				}

			}
, 			{
				"patchline" : 				{
					"destination" : [ "obj-118", 0 ],
					"order" : 0,
					"source" : [ "obj-115", 1 ]
				}

			}
, 			{
				"patchline" : 				{
					"destination" : [ "obj-118", 0 ],
					"order" : 0,
					"source" : [ "obj-115", 0 ]
				}

			}
, 			{
				"patchline" : 				{
					"destination" : [ "obj-108", 1 ],
					"order" : 0,
					"source" : [ "obj-118", 0 ]
				}

			}
, 			{
				"patchline" : 				{
					"destination" : [ "obj-117", 0 ],
					"order" : 1,
					"source" : [ "obj-118", 0 ]
				}

			}
, 			{
				"patchline" : 				{
					"destination" : [ "obj-124", 0 ],
					"source" : [ "obj-123", 0 ]
				}

			}
, 			{
				"patchline" : 				{
					"destination" : [ "obj-125", 1 ],
					"source" : [ "obj-124", 1 ]
				}

			}
, 			{
				"patchline" : 				{
					"destination" : [ "obj-125", 0 ],
					"source" : [ "obj-124", 0 ]
				}

			}
, 			{
				"patchline" : 				{
					"destination" : [ "obj-127", 0 ],
					"source" : [ "obj-126", 0 ]
				}

			}
, 			{
				"patchline" : 				{
					"destination" : [ "obj-131", 0 ],
					"source" : [ "obj-130", 0 ]
				}

			}
, 			{
				"patchline" : 				{
					"destination" : [ "obj-125", 1 ],
					"order" : 0,
					"source" : [ "obj-131", 0 ]
				}

			}
, 			{
				"patchline" : 				{
					"destination" : [ "obj-125", 0 ],
					"order" : 1,
					"source" : [ "obj-131", 0 ]
				}

			}
, 			{
				"patchline" : 				{
					"destination" : [ "obj-137", 0 ],
					"source" : [ "obj-133", 0 ]
				}

			}
, 			{
				"patchline" : 				{
					"destination" : [ "obj-133", 0 ],
					"source" : [ "obj-135", 0 ]
				}

			}
, 			{
				"patchline" : 				{
					"destination" : [ "obj-16", 1 ],
					"order" : 0,
					"source" : [ "obj-15", 0 ]
				}

			}
, 			{
				"patchline" : 				{
					"destination" : [ "obj-16", 0 ],
					"order" : 1,
					"source" : [ "obj-15", 0 ]
				}

			}
, 			{
				"patchline" : 				{
					"destination" : [ "obj-15", 0 ],
					"source" : [ "obj-19", 0 ]
				}

			}
, 			{
				"patchline" : 				{
					"destination" : [ "obj-3", 0 ],
					"source" : [ "obj-2", 0 ]
				}

			}
, 			{
				"patchline" : 				{
					"destination" : [ "obj-19", 0 ],
					"source" : [ "obj-21", 0 ]
				}

			}
, 			{
				"patchline" : 				{
					"destination" : [ "obj-36", 3 ],
					"source" : [ "obj-26", 2 ]
				}

			}
, 			{
				"patchline" : 				{
					"destination" : [ "obj-36", 2 ],
					"source" : [ "obj-26", 1 ]
				}

			}
, 			{
				"patchline" : 				{
					"destination" : [ "obj-36", 1 ],
					"source" : [ "obj-26", 0 ]
				}

			}
, 			{
				"patchline" : 				{
					"destination" : [ "obj-26", 0 ],
					"midpoints" : [ 734.0, 258.0, 530.5, 258.0 ],
					"order" : 1,
					"source" : [ "obj-3", 0 ]
				}

			}
, 			{
				"patchline" : 				{
					"destination" : [ "obj-45", 1 ],
					"midpoints" : [ 734.0, 285.0, 765.5, 285.0 ],
					"order" : 0,
					"source" : [ "obj-3", 0 ]
				}

			}
, 			{
				"patchline" : 				{
					"destination" : [ "obj-46", 0 ],
					"source" : [ "obj-30", 0 ]
				}

			}
, 			{
				"patchline" : 				{
					"destination" : [ "obj-36", 0 ],
					"source" : [ "obj-35", 0 ]
				}

			}
, 			{
				"patchline" : 				{
					"destination" : [ "obj-38", 1 ],
					"order" : 0,
					"source" : [ "obj-36", 0 ]
				}

			}
, 			{
				"patchline" : 				{
					"destination" : [ "obj-38", 0 ],
					"order" : 1,
					"source" : [ "obj-36", 0 ]
				}

			}
, 			{
				"patchline" : 				{
					"destination" : [ "obj-3", 0 ],
					"source" : [ "obj-43", 0 ]
				}

			}
, 			{
				"patchline" : 				{
					"destination" : [ "obj-38", 1 ],
					"order" : 0,
					"source" : [ "obj-45", 0 ]
				}

			}
, 			{
				"patchline" : 				{
					"destination" : [ "obj-38", 0 ],
					"order" : 1,
					"source" : [ "obj-45", 0 ]
				}

			}
, 			{
				"patchline" : 				{
					"destination" : [ "obj-26", 0 ],
					"source" : [ "obj-46", 0 ]
				}

			}
, 			{
				"patchline" : 				{
					"destination" : [ "obj-45", 0 ],
					"source" : [ "obj-49", 0 ]
				}

			}
, 			{
				"patchline" : 				{
					"destination" : [ "obj-10", 0 ],
					"order" : 1,
					"source" : [ "obj-6", 0 ]
				}

			}
, 			{
				"patchline" : 				{
					"destination" : [ "obj-90", 1 ],
					"order" : 0,
					"source" : [ "obj-6", 0 ]
				}

			}
, 			{
				"patchline" : 				{
					"destination" : [ "obj-85", 0 ],
					"source" : [ "obj-83", 0 ]
				}

			}
, 			{
				"patchline" : 				{
					"destination" : [ "obj-85", 0 ],
					"source" : [ "obj-84", 0 ]
				}

			}
, 			{
				"patchline" : 				{
					"destination" : [ "obj-6", 0 ],
					"order" : 0,
					"source" : [ "obj-85", 0 ]
				}

			}
, 			{
				"patchline" : 				{
					"destination" : [ "obj-88", 1 ],
					"order" : 1,
					"source" : [ "obj-85", 0 ]
				}

			}
, 			{
				"patchline" : 				{
					"destination" : [ "obj-88", 0 ],
					"order" : 2,
					"source" : [ "obj-85", 0 ]
				}

			}
, 			{
				"patchline" : 				{
					"destination" : [ "obj-87", 0 ],
					"source" : [ "obj-86", 0 ]
				}

			}
, 			{
				"patchline" : 				{
					"destination" : [ "obj-6", 0 ],
					"order" : 0,
					"source" : [ "obj-87", 0 ]
				}

			}
, 			{
				"patchline" : 				{
					"destination" : [ "obj-88", 1 ],
					"order" : 1,
					"source" : [ "obj-87", 0 ]
				}

			}
, 			{
				"patchline" : 				{
					"destination" : [ "obj-88", 0 ],
					"order" : 2,
					"source" : [ "obj-87", 0 ]
				}

			}
, 			{
				"patchline" : 				{
					"destination" : [ "obj-96", 0 ],
					"source" : [ "obj-92", 0 ]
				}

			}
, 			{
				"patchline" : 				{
					"destination" : [ "obj-91", 0 ],
					"source" : [ "obj-96", 0 ]
				}

			}
 ],
		"dependency_cache" : [ 			{
				"name" : "fluid.nmffilter~.mxo",
				"type" : "iLaX"
			}
, 			{
				"name" : "fluid.nmfmatch~.mxo",
				"type" : "iLaX"
			}
, 			{
				"name" : "fluid.bufnmf~.mxo",
				"type" : "iLaX"
			}
, 			{
				"name" : "fluid.bufcompose~.mxo",
				"type" : "iLaX"
			}
 ],
		"autosave" : 0,
		"styles" : [ 			{
				"name" : "max6box",
				"default" : 				{
					"bgcolor" : [ 1.0, 1.0, 1.0, 0.5 ],
					"accentcolor" : [ 0.8, 0.839216, 0.709804, 1.0 ],
					"textcolor_inverse" : [ 0.0, 0.0, 0.0, 1.0 ]
				}
,
				"parentstyle" : "",
				"multi" : 0
			}
, 			{
				"name" : "max6inlet",
				"default" : 				{
					"color" : [ 0.423529, 0.372549, 0.27451, 1.0 ]
				}
,
				"parentstyle" : "",
				"multi" : 0
			}
, 			{
				"name" : "max6message",
				"default" : 				{
					"bgfillcolor" : 					{
						"type" : "gradient",
						"color1" : [ 0.866667, 0.866667, 0.866667, 1.0 ],
						"color2" : [ 0.788235, 0.788235, 0.788235, 1.0 ],
						"color" : [ 0.290196, 0.309804, 0.301961, 1.0 ],
						"angle" : 270.0,
						"proportion" : 0.39,
						"autogradient" : 0
					}
,
					"textcolor_inverse" : [ 0.0, 0.0, 0.0, 1.0 ]
				}
,
				"parentstyle" : "max6box",
				"multi" : 0
			}
, 			{
				"name" : "max6outlet",
				"default" : 				{
					"color" : [ 0.0, 0.454902, 0.498039, 1.0 ]
				}
,
				"parentstyle" : "",
				"multi" : 0
			}
 ]
	}

}
